<?xml version="1.0" encoding="UTF-8"?>
<svg xmlns="http://www.w3.org/2000/svg" xmlns:xlink="http://www.w3.org/1999/xlink" width="1280" height="720" viewBox="0 0 1280 720">
<defs>
<g>
<g id="glyph-0-0">
<path d="M 2.875 1.265625 L 3.328125 0.109375 L 0.75 -6.21875 L -0.03125 -6.21875 L -0.03125 -6.921875 L 3.140625 -6.921875 L 3.140625 -6.21875 L 2.03125 -6.21875 L 3.984375 -1.46875 L 5.921875 -6.21875 L 4.890625 -6.21875 L 4.890625 -6.921875 L 7.484375 -6.921875 L 7.484375 -6.21875 L 6.71875 -6.21875 L 3.546875 1.5625 C 3.328125 2.101562 3.082031 2.472656 2.8125 2.671875 C 2.550781 2.867188 2.179688 2.96875 1.703125 2.96875 C 1.503906 2.96875 1.296875 2.945312 1.078125 2.90625 C 0.859375 2.875 0.640625 2.828125 0.421875 2.765625 L 0.421875 1.4375 L 1.046875 1.4375 C 1.066406 1.726562 1.140625 1.9375 1.265625 2.0625 C 1.390625 2.195312 1.582031 2.265625 1.84375 2.265625 C 2.082031 2.265625 2.273438 2.195312 2.421875 2.0625 C 2.566406 1.9375 2.71875 1.671875 2.875 1.265625 Z "/>
</g>
</g>
</defs>
<g fill="rgb(100%, 100%, 100%)" fill-opacity="1">
<use xlink:href="#glyph-0-0" x="30" y="32.375977"/>
</g>
</svg>
